PathFileType	4	(X/Y/Z)	/Users/itak/Documents/Research/Walk-IL/dataset/trc/00245_00009.trc
DataRate	CameraRate	NumFrames	NumMarkers	Units	OrigDataRate	OrigDataStartFrame	OrigNumFrames
100.000000	100.000000	4	53	mm	100.000000	195	782
Frame#	Time	RPSI			LPSI			L3			STRN			T10			C7			CLAV			RBAK			LBAK			LSHO			LUPA			LAEL			LAOL			LWTS			LWPS			LFRA			LIFD			LHPS			LHTS			RSHO			RUPA			RAEL			RAOL			RWTS			RWPS			RFRA			RIFD			RHTS			RHPS			RBHD			LFHD			RFHD			LBHD			LHIP			RHIP			RASI			LASI			LKNE			LTHI			LANK			LTIP			LTOE			LMT1			LMT5			LHEE			RKNE			RTHI			RANK			RTIP			RTOE			RMT1			RMT5			RHEE			
		X1	Y1	Z1	X2	Y2	Z2	X3	Y3	Z3	X4	Y4	Z4	X5	Y5	Z5	X6	Y6	Z6	X7	Y7	Z7	X8	Y8	Z8	X9	Y9	Z9	X10	Y10	Z10	X11	Y11	Z11	X12	Y12	Z12	X13	Y13	Z13	X14	Y14	Z14	X15	Y15	Z15	X16	Y16	Z16	X17	Y17	Z17	X18	Y18	Z18	X19	Y19	Z19	X20	Y20	Z20	X21	Y21	Z21	X22	Y22	Z22	X23	Y23	Z23	X24	Y24	Z24	X25	Y25	Z25	X26	Y26	Z26	X27	Y27	Z27	X28	Y28	Z28	X29	Y29	Z29	X30	Y30	Z30	X31	Y31	Z31	X32	Y32	Z32	X33	Y33	Z33	X34	Y34	Z34	X35	Y35	Z35	X36	Y36	Z36	X37	Y37	Z37	X38	Y38	Z38	X39	Y39	Z39	X40	Y40	Z40	X41	Y41	Z41	X42	Y42	Z42	X43	Y43	Z43	X44	Y44	Z44	X45	Y45	Z45	X46	Y46	Z46	X47	Y47	Z47	X48	Y48	Z48	X49	Y49	Z49	X50	Y50	Z50	X51	Y51	Z51	X52	Y52	Z52	X53	Y53	Z53	

196	1.95	-152.1653594970703	1028.140014648438	638.759765625	-238.8290863037109	1040.902709960938	720.28759765625	-206.2825622558594	1124.790405273438	693.4923706054688	-389.1618957519531	1295.117797851562	507.0787353515625	-207.6790161132812	1250.674682617188	688.2814331054688	-264.619384765625	1508.65087890625	636.2581176757812	-374.8350830078125	1414.081298828125	519.6445922851562	-153.6791534423828	1375.44482421875	645.2177124023438	-331.1510009765625	1470.475952148438	728.7367553710938	-430.9030151367188	1468.222045898438	700.791748046875	-478.0934143066406	1355.881469726562	774.33642578125	-547.6002807617188	1155.261474609375	770.600830078125	-473.458740234375	1119.032470703125	798.1882934570312	-597.9923095703125	970.5701293945312	601.40283203125	-655.3902587890625	948.2647094726562	659.224609375	-593.8938598632812	1062.697875976562	732.7078247070312	-657.379150390625	795.6617431640625	540.9244384765625	-683.9514770507812	875.5253295898438	616.17431640625	-658.9699096679688	893.6179809570312	554.6940307617188	-182.5393981933594	1464.907104492188	477.2184753417969	-117.8700485229492	1401.502319335938	448.1689147949219	-58.78190994262695	1123.620483398438	448.3412475585938	-103.2324523925781	1115.963745117188	532.3473510742188	-188.054443359375	918.1199340820312	365.2909545898438	-104.6065063476562	899.604248046875	363.382568359375	-66.89027404785156	1055.734130859375	418.3457641601562	-213.2637939453125	727.9176025390625	342.548828125	-207.6840972900391	802.4466552734375	315.8597717285156	-135.3404693603516	797.2601928710938	324.4776000976562	-270.7738342285156	1666.955810546875	567.7311401367188	-472.5237731933594	1687.7548828125	464.2378540039062	-393.2437133789062	1685.494750976562	402.8137817382812	-403.4878234863281	1670.395874023438	613.7257690429688	-411.4124755859375	985.50390625	749.36328125	-147.0333251953125	988.8541259765625	494.4066162109375	-240.4020385742188	1033.965454101562	452.1396484375	-445.7931518554688	1021.7470703125	644.0281372070312	-387.9969177246094	499.9320068359375	704.9058837890625	-411.6922302246094	644.2626342773438	720.2898559570312	-261.7116088867188	37.60713195800781	781.678466796875	-328.0967712402344	279.7835693359375	754.3343505859375	-402.5333862304688	43.50498580932617	608.5787963867188	-321.7715454101562	39.91320037841797	614.0280151367188	-374.5421752929688	36.02822875976562	721.4375	-181.5899963378906	48.01695251464844	774.9722900390625	-300.7853698730469	529.41259765625	373.8665161132812	-208.1979370117188	785.1549682617188	412.0693359375	-311.3658752441406	42.25899505615234	477.121337890625	-328.6135864257812	409.5781555175781	377.5936279296875	-446.1147766113281	83.63471984863281	323.7459411621094	-459.7864379882812	70.26148986816406	391.3379516601562	-344.2406616210938	50.01324844360352	370.9233093261719	-329.18017578125	43.3834114074707	559.72314453125	
197	1.96	-156.8862152099609	1027.5146484375	636.3524780273438	-244.5337066650391	1040.315673828125	716.7967529296875	-211.6183624267578	1124.14404296875	690.483154296875	-392.4676818847656	1294.409790039062	501.9000244140625	-213.0283050537109	1250.011962890625	685.2216186523438	-269.5585327148438	1507.958251953125	632.4539794921875	-378.2803039550781	1413.386352539062	514.6069946289062	-158.5882263183594	1374.755615234375	642.72998046875	-337.0077514648438	1469.77099609375	724.1956787109375	-436.4400939941406	1467.499755859375	695.0337524414062	-484.471435546875	1355.239868164062	768.07177734375	-553.9243774414062	1154.665771484375	763.6724243164062	-480.0659484863281	1118.412475585938	792.177734375	-602.2266845703125	970.2119750976562	593.6116333007812	-660.4124145507812	947.809326171875	650.7291870117188	-599.6266479492188	1062.068603515625	725.0604248046875	-661.0009155273438	795.4078979492188	531.9992065429688	-688.3534545898438	875.0787963867188	607.1178588867188	-662.697998046875	893.3619384765625	546.0665283203125	-185.4947357177734	1464.192993164062	474.4179077148438	-120.4974822998047	1400.788818359375	446.1375427246094	-61.34145355224609	1122.942260742188	447.1007385253906	-106.9032821655273	1115.267456054688	530.456298828125	-189.0196533203125	916.9935302734375	362.6051330566406	-105.4969787597656	898.76416015625	361.7550354003906	-68.9140625	1055.035766601562	417.0605773925781	-213.2177581787109	726.5145263671875	339.9547729492188	-207.6528167724609	801.0798950195312	313.245361328125	-135.3831024169922	796.2244873046875	322.7073669433594	-274.7685546875	1666.26123046875	563.903564453125	-475.2703247070312	1687.027465820312	458.0413818359375	-395.2567443847656	1684.770141601562	397.575927734375	-407.9897155761719	1669.7158203125	608.3331298828125	-417.2266540527344	984.8055419921875	744.1300048828125	-150.3455047607422	988.0773315429688	492.0590515136719	-243.1245574951172	1033.160888671875	448.7263793945312	-449.59130859375	1020.323852539062	639.1517333984375	-389.5846862792969	499.4450988769531	702.868408203125	-414.7054138183594	643.7362670898438	716.947998046875	-261.7772827148438	37.77042770385742	781.5382080078125	-328.8324890136719	279.8994445800781	753.5770263671875	-402.5149841308594	43.50595855712891	608.55615234375	-321.7736511230469	39.90787887573242	614.012451171875	-374.5419921875	36.02277755737305	721.4342041015625	-181.6519470214844	48.33576202392578	774.9971313476562	-303.4780883789062	528.885498046875	370.6532287597656	-209.8116607666016	784.403076171875	409.3604431152344	-329.8017578125	40.00623321533203	464.3343505859375	-334.0144348144531	409.5624084472656	371.9780578613281	-458.6793212890625	87.07015228271484	307.4443969726562	-474.7715759277344	73.26404571533203	374.3980712890625	-359.2908020019531	50.11467361450195	357.3612976074219	-350.1074523925781	40.39250946044922	546.3485717773438	
198	1.97	-161.6296081542969	1026.782592773438	633.7906494140625	-250.2335510253906	1039.646362304688	713.1575927734375	-216.9486694335938	1123.395385742188	687.327392578125	-395.7571105957031	1293.63525390625	496.6336364746094	-218.3603363037109	1249.246337890625	682.0221557617188	-274.45263671875	1507.17578125	628.523681640625	-381.6897888183594	1412.618896484375	509.4908447265625	-163.4667510986328	1373.958374023438	640.0846557617188	-342.7359924316406	1468.986572265625	719.5546264648438	-441.8934326171875	1466.695922851562	689.1994018554688	-490.7268981933594	1354.520263671875	761.7127075195312	-560.0924682617188	1153.952392578125	756.6778564453125	-486.4625244140625	1117.717041015625	786.1122436523438	-606.21240234375	969.5838012695312	585.9376831054688	-665.1624145507812	947.1251831054688	642.3469848632812	-605.1387939453125	1061.244384765625	717.4197998046875	-664.2351684570312	794.7781372070312	523.3582763671875	-692.4263916015625	874.3244018554688	598.2257690429688	-666.105712890625	892.7756958007812	537.6151123046875	-188.4506072998047	1463.388793945312	471.4972534179688	-123.1336212158203	1399.986694335938	443.97412109375	-63.88973617553711	1122.190551757812	445.7125549316406	-110.5286560058594	1114.49609375	528.4336547851562	-189.9852905273438	915.7630615234375	359.8860778808594	-106.4073944091797	897.83349609375	360.0519104003906	-70.93886566162109	1054.245727539062	415.6553039550781	-213.1619415283203	725.0089721679688	337.4430847167969	-207.6378173828125	799.5936279296875	310.6656799316406	-135.4550323486328	795.0865478515625	320.9178161621094	-278.7223510742188	1665.485595703125	559.9830932617188	-477.9563903808594	1686.23486328125	451.7896118164062	-397.2249450683594	1683.974487304688	392.2799682617188	-412.4257507324219	1668.961059570312	602.862548828125	-423.0289916992188	984.052001953125	738.7781372070312	-153.6968536376953	987.1792602539062	489.570556640625	-245.9244537353516	1032.252197265625	445.2211608886719	-453.6692504882812	1019.011474609375	633.9893798828125	-391.1947937011719	498.950439453125	700.8258056640625	-417.7020263671875	643.1919555664062	713.62939453125	-261.8390197753906	37.94918060302734	781.3897705078125	-329.6050415039062	280.0380554199219	752.813232421875	-402.503173828125	43.50391006469727	608.5382690429688	-321.7827453613281	39.91403961181641	614.0120849609375	-374.5422058105469	36.02078628540039	721.4345703125	-181.7531127929688	48.71248245239258	775.0343627929688	-306.2510070800781	528.1077270507812	367.673095703125	-211.6041717529297	783.49609375	406.6336669921875	-347.6487426757812	38.14262390136719	451.6709289550781	-339.3206176757812	409.4052429199219	366.6376953125	-470.3198852539062	90.50289154052734	291.4423522949219	-488.8094482421875	76.40431213378906	357.6714172363281	-373.585205078125	50.35024642944336	344.0482788085938	-370.4952087402344	37.96163558959961	532.9882202148438	
199	1.98	-166.3971557617188	1025.94384765625	631.0567016601562	-255.9223022460938	1038.890380859375	709.364013671875	-222.2743530273438	1122.537719726562	684.0144653320312	-399.0277099609375	1292.789794921875	491.2821350097656	-223.6727142333984	1248.371826171875	678.6734008789062	-279.2905578613281	1506.299682617188	624.4711303710938	-385.0615539550781	1411.7744140625	504.2959594726562	-168.3118438720703	1373.04736328125	637.285888671875	-348.3373718261719	1468.11865234375	714.8148803710938	-447.2607116699219	1465.808471679688	683.2921142578125	-496.86181640625	1353.712158203125	755.2623291015625	-566.1112060546875	1153.119018554688	749.6138305664062	-492.6856384277344	1116.941162109375	779.9981689453125	-609.9637451171875	968.67529296875	578.4027099609375	-669.6394653320312	946.196533203125	634.0800170898438	-610.4638061523438	1060.237670898438	709.8031616210938	-667.1112060546875	793.7628173828125	515.0155639648438	-696.1742553710938	873.2489624023438	589.5142211914062	-669.1893310546875	891.847900390625	529.3479614257812	-191.4061737060547	1462.490112304688	468.4538269042969	-125.7756500244141	1399.088745117188	441.6770629882812	-66.42774200439453	1121.357055664062	444.1784973144531	-114.10888671875	1113.643432617188	526.2841796875	-190.9551544189453	914.42578125	357.12548828125	-107.3498687744141	896.80322265625	358.2694396972656	-72.97261047363281	1053.355590820312	414.1305847167969	-213.1142272949219	723.404296875	334.9924926757812	-207.6489410400391	797.9898681640625	308.1047058105469	-135.5624389648438	793.8413696289062	319.0997924804688	-282.6287536621094	1664.626220703125	555.963623046875	-480.5821228027344	1685.376220703125	445.4850463867188	-399.1539611816406	1683.10400390625	386.9241027832031	-416.7939758300781	1668.13330078125	597.3173828125	-428.81201171875	983.2376098632812	733.3133544921875	-157.1047515869141	986.1587524414062	486.9230346679688	-248.8142547607422	1031.239135742188	441.6098022460938	-458.08447265625	1017.84619140625	628.4932861328125	-392.8516235351562	498.4489135742188	698.7623291015625	-420.6885681152344	642.6123657226562	710.3258666992188	-261.8984375	38.14045715332031	781.240966796875	-330.4295349121094	280.1946105957031	752.0358276367188	-402.4944458007812	43.49720001220703	608.5281982421875	-321.8016052246094	39.93022537231445	614.0255126953125	-374.5440368652344	36.02139282226562	721.4381713867188	-181.8899536132812	49.14767837524414	775.0787963867188	-309.1533203125	527.0901489257812	364.8943786621094	-213.6014099121094	782.433349609375	403.8660278320312	-364.8239135742188	36.62234115600586	439.2059326171875	-344.5482482910156	409.1075744628906	361.5798645019531	-480.9059448242188	93.86552429199219	275.7533569335938	-501.8043518066406	79.60268402099609	341.1737060546875	-387.0068969726562	50.68583297729492	331.051025390625	-390.2739868164062	36.03076934814453	519.7092895507812	
